<svg width="179" height="160" viewBox="0 0 179 160" fill="none" xmlns="http://www.w3.org/2000/svg">
<path d="M-45.1046 61.487C45.0182 104.589 67.9461 17.784 68.1447 -31.006C58.6135 -49.6809 29.3326 -86.4083 -11.5411 -83.9189C-62.6333 -80.8071 -157.758 7.61003 -45.1046 61.487Z" stroke="black" stroke-width="0.440322"/>
<circle cx="89.7829" cy="-34.7966" r="28.7499" transform="rotate(19.4105 89.7829 -34.7966)" fill="url(#paint0_linear_601_922)"/>
<circle cx="89.0085" cy="-36.2727" r="28.7499" transform="rotate(19.4105 89.0085 -36.2727)" fill="url(#paint1_linear_601_922)"/>
<circle cx="-35.5677" cy="51.3332" r="28.7499" transform="rotate(19.4105 -35.5677 51.3332)" fill="url(#paint2_linear_601_922)"/>
<circle cx="-34.1184" cy="52.1645" r="28.7499" transform="rotate(19.4105 -34.1184 52.1645)" fill="url(#paint3_linear_601_922)"/>
<circle cx="-32.6614" cy="52.9795" r="28.7499" transform="rotate(19.4105 -32.6614 52.9795)" fill="url(#paint4_linear_601_922)"/>
<circle cx="-31.1956" cy="53.7797" r="28.7499" transform="rotate(19.4105 -31.1956 53.7797)" fill="url(#paint5_linear_601_922)"/>
<circle cx="-29.721" cy="54.5653" r="28.7499" transform="rotate(19.4105 -29.721 54.5653)" fill="url(#paint6_linear_601_922)"/>
<circle cx="-28.2395" cy="55.3358" r="28.7499" transform="rotate(19.4105 -28.2395 55.3358)" fill="url(#paint7_linear_601_922)"/>
<circle cx="-26.7503" cy="56.0934" r="28.7499" transform="rotate(19.4105 -26.7503 56.0934)" fill="url(#paint8_linear_601_922)"/>
<circle cx="-25.2542" cy="56.8363" r="28.7499" transform="rotate(19.4105 -25.2542 56.8363)" fill="url(#paint9_linear_601_922)"/>
<circle cx="-23.7454" cy="57.5688" r="28.7499" transform="rotate(19.4105 -23.7454 57.5688)" fill="url(#paint10_linear_601_922)"/>
<circle cx="-20.721" cy="58.9853" r="28.7499" transform="rotate(19.4105 -20.721 58.9853)" fill="url(#paint11_linear_601_922)"/>
<circle cx="-19.1975" cy="59.6708" r="28.7499" transform="rotate(19.4105 -19.1975 59.6708)" fill="url(#paint12_linear_601_922)"/>
<circle cx="-17.6673" cy="60.3387" r="28.7499" transform="rotate(19.4105 -17.6673 60.3387)" fill="url(#paint13_linear_601_922)"/>
<circle cx="-16.1292" cy="60.9905" r="28.7499" transform="rotate(19.4105 -16.1292 60.9905)" fill="url(#paint14_linear_601_922)"/>
<circle cx="-14.5833" cy="61.6241" r="28.7499" transform="rotate(19.4105 -14.5833 61.6241)" fill="url(#paint15_linear_601_922)"/>
<circle cx="-11.471" cy="62.8357" r="28.7499" transform="rotate(19.4105 -11.471 62.8357)" fill="url(#paint16_linear_601_922)"/>
<circle cx="-9.90263" cy="63.413" r="28.7499" transform="rotate(19.4105 -9.90263 63.413)" fill="url(#paint17_linear_601_922)"/>
<circle cx="-8.32841" cy="63.969" r="28.7499" transform="rotate(19.4105 -8.32841 63.969)" fill="url(#paint18_linear_601_922)"/>
<circle cx="-6.74638" cy="64.5026" r="28.7499" transform="rotate(19.4105 -6.74638 64.5026)" fill="url(#paint19_linear_601_922)"/>
<circle cx="-5.15653" cy="65.0152" r="28.7499" transform="rotate(19.4105 -5.15653 65.0152)" fill="url(#paint20_linear_601_922)"/>
<circle cx="-3.55985" cy="65.5047" r="28.7499" transform="rotate(19.4105 -3.55985 65.5047)" fill="url(#paint21_linear_601_922)"/>
<circle cx="-1.95536" cy="65.9705" r="28.7499" transform="rotate(19.4105 -1.95536 65.9705)" fill="url(#paint22_linear_601_922)"/>
<circle cx="-0.345009" cy="66.4099" r="28.7499" transform="rotate(19.4105 -0.345009 66.4099)" fill="url(#paint23_linear_601_922)"/>
<circle cx="1.27315" cy="66.8252" r="28.7499" transform="rotate(19.4105 1.27315 66.8252)" fill="url(#paint24_linear_601_922)"/>
<circle cx="2.89815" cy="67.2123" r="28.7499" transform="rotate(19.4105 2.89815 67.2123)" fill="url(#paint25_linear_601_922)"/>
<circle cx="4.52901" cy="67.5718" r="28.7499" transform="rotate(19.4105 4.52901 67.5718)" fill="url(#paint26_linear_601_922)"/>
<circle cx="6.16671" cy="67.9014" r="28.7499" transform="rotate(19.4105 6.16671 67.9014)" fill="url(#paint27_linear_601_922)"/>
<circle cx="7.80929" cy="68.2011" r="28.7499" transform="rotate(19.4105 7.80929 68.2011)" fill="url(#paint28_linear_601_922)"/>
<circle cx="9.4587" cy="68.4695" r="28.7499" transform="rotate(19.4105 9.4587 68.4695)" fill="url(#paint29_linear_601_922)"/>
<circle cx="11.111" cy="68.7044" r="28.7499" transform="rotate(19.4105 11.111 68.7044)" fill="url(#paint30_linear_601_922)"/>
<circle cx="12.7692" cy="68.9055" r="28.7499" transform="rotate(19.4105 12.7692 68.9055)" fill="url(#paint31_linear_601_922)"/>
<circle cx="14.4314" cy="69.071" r="28.7499" transform="rotate(19.4105 14.4314 69.071)" fill="url(#paint32_linear_601_922)"/>
<circle cx="16.0964" cy="69.2003" r="28.7499" transform="rotate(19.4105 16.0964 69.2003)" fill="url(#paint33_linear_601_922)"/>
<circle cx="17.7644" cy="69.2917" r="28.7499" transform="rotate(19.4105 17.7644 69.2917)" fill="url(#paint34_linear_601_922)"/>
<circle cx="19.4333" cy="69.3429" r="28.7499" transform="rotate(19.4105 19.4333 69.3429)" fill="url(#paint35_linear_601_922)"/>
<circle cx="21.1042" cy="69.355" r="28.7499" transform="rotate(19.4105 21.1042 69.355)" fill="url(#paint36_linear_601_922)"/>
<circle cx="22.7741" cy="69.3251" r="28.7499" transform="rotate(19.4105 22.7741 69.3251)" fill="url(#paint37_linear_601_922)"/>
<circle cx="24.4431" cy="69.2514" r="28.7499" transform="rotate(19.4105 24.4431 69.2514)" fill="url(#paint38_linear_601_922)"/>
<circle cx="26.1091" cy="69.1339" r="28.7499" transform="rotate(19.4105 26.1091 69.1339)" fill="url(#paint39_linear_601_922)"/>
<circle cx="27.7702" cy="68.9701" r="28.7499" transform="rotate(19.4105 27.7702 68.9701)" fill="url(#paint40_linear_601_922)"/>
<circle cx="29.4275" cy="68.7613" r="28.7499" transform="rotate(19.4105 29.4275 68.7613)" fill="url(#paint41_linear_601_922)"/>
<circle cx="31.0778" cy="68.5045" r="28.7499" transform="rotate(19.4105 31.0778 68.5045)" fill="url(#paint42_linear_601_922)"/>
<circle cx="32.7214" cy="68.2007" r="28.7499" transform="rotate(19.4105 32.7214 68.2007)" fill="url(#paint43_linear_601_922)"/>
<circle cx="34.3532" cy="67.8474" r="28.7499" transform="rotate(19.4105 34.3532 67.8474)" fill="url(#paint44_linear_601_922)"/>
<circle cx="35.9743" cy="67.4452" r="28.7499" transform="rotate(19.4105 35.9743 67.4452)" fill="url(#paint45_linear_601_922)"/>
<circle cx="37.5817" cy="66.992" r="28.7499" transform="rotate(19.4105 37.5817 66.992)" fill="url(#paint46_linear_601_922)"/>
<circle cx="39.1755" cy="66.4903" r="28.7499" transform="rotate(19.4105 39.1755 66.4903)" fill="url(#paint47_linear_601_922)"/>
<circle cx="40.7517" cy="65.9383" r="28.7499" transform="rotate(19.4105 40.7517 65.9383)" fill="url(#paint48_linear_601_922)"/>
<circle cx="42.3103" cy="65.3377" r="28.7499" transform="rotate(19.4105 42.3103 65.3377)" fill="url(#paint49_linear_601_922)"/>
<circle cx="43.8484" cy="64.6868" r="28.7499" transform="rotate(19.4105 43.8484 64.6868)" fill="url(#paint50_linear_601_922)"/>
<circle cx="45.3659" cy="63.9883" r="28.7499" transform="rotate(19.4105 45.3659 63.9883)" fill="url(#paint51_linear_601_922)"/>
<circle cx="46.8601" cy="63.2416" r="28.7499" transform="rotate(19.4105 46.8601 63.2416)" fill="url(#paint52_linear_601_922)"/>
<circle cx="48.3298" cy="62.4485" r="28.7499" transform="rotate(19.4105 48.3298 62.4485)" fill="url(#paint53_linear_601_922)"/>
<circle cx="49.7741" cy="61.6093" r="28.7499" transform="rotate(19.4105 49.7741 61.6093)" fill="url(#paint54_linear_601_922)"/>
<circle cx="51.1921" cy="60.7259" r="28.7499" transform="rotate(19.4105 51.1921 60.7259)" fill="url(#paint55_linear_601_922)"/>
<circle cx="52.5817" cy="59.7992" r="28.7499" transform="rotate(19.4105 52.5817 59.7992)" fill="url(#paint56_linear_601_922)"/>
<circle cx="53.9431" cy="58.8305" r="28.7499" transform="rotate(19.4105 53.9431 58.8305)" fill="url(#paint57_linear_601_922)"/>
<circle cx="55.2741" cy="57.8216" r="28.7499" transform="rotate(19.4105 55.2741 57.8216)" fill="url(#paint58_linear_601_922)"/>
<circle cx="56.5749" cy="56.7744" r="28.7499" transform="rotate(19.4105 56.5749 56.7744)" fill="url(#paint59_linear_601_922)"/>
<circle cx="57.8464" cy="55.6908" r="28.7499" transform="rotate(19.4105 57.8464 55.6908)" fill="url(#paint60_linear_601_922)"/>
<circle cx="59.0876" cy="54.5724" r="28.7499" transform="rotate(19.4105 59.0876 54.5724)" fill="url(#paint61_linear_601_922)"/>
<circle cx="60.2956" cy="53.4192" r="28.7499" transform="rotate(19.4105 60.2956 53.4192)" fill="url(#paint62_linear_601_922)"/>
<circle cx="61.4734" cy="52.2346" r="28.7499" transform="rotate(19.4105 61.4734 52.2346)" fill="url(#paint63_linear_601_922)"/>
<circle cx="62.6208" cy="51.0213" r="28.7499" transform="rotate(19.4105 62.6208 51.0213)" fill="url(#paint64_linear_601_922)"/>
<circle cx="63.737" cy="49.7777" r="28.7499" transform="rotate(19.4105 63.737 49.7777)" fill="url(#paint65_linear_601_922)"/>
<circle cx="64.822" cy="48.5086" r="28.7499" transform="rotate(19.4105 64.822 48.5086)" fill="url(#paint66_linear_601_922)"/>
<circle cx="65.8767" cy="47.2129" r="28.7499" transform="rotate(19.4105 65.8767 47.2129)" fill="url(#paint67_linear_601_922)"/>
<circle cx="66.9021" cy="45.8943" r="28.7499" transform="rotate(19.4105 66.9021 45.8943)" fill="url(#paint68_linear_601_922)"/>
<circle cx="67.8962" cy="44.5522" r="28.7499" transform="rotate(19.4105 67.8962 44.5522)" fill="url(#paint69_linear_601_922)"/>
<circle cx="68.863" cy="43.1894" r="28.7499" transform="rotate(19.4105 68.863 43.1894)" fill="url(#paint70_linear_601_922)"/>
<circle cx="69.8005" cy="41.8074" r="28.7499" transform="rotate(19.4105 69.8005 41.8074)" fill="url(#paint71_linear_601_922)"/>
<circle cx="70.7087" cy="40.4055" r="28.7499" transform="rotate(19.4105 70.7087 40.4055)" fill="url(#paint72_linear_601_922)"/>
<circle cx="71.5886" cy="38.9856" r="28.7499" transform="rotate(19.4105 71.5886 38.9856)" fill="url(#paint73_linear_601_922)"/>
<circle cx="72.4431" cy="37.5498" r="28.7499" transform="rotate(19.4105 72.4431 37.5498)" fill="url(#paint74_linear_601_922)"/>
<circle cx="73.2702" cy="36.0994" r="28.7499" transform="rotate(19.4105 73.2702 36.0994)" fill="url(#paint75_linear_601_922)"/>
<circle cx="74.071" cy="34.6332" r="28.7499" transform="rotate(19.4105 74.071 34.6332)" fill="url(#paint76_linear_601_922)"/>
<circle cx="74.8464" cy="33.1535" r="28.7499" transform="rotate(19.4105 74.8464 33.1535)" fill="url(#paint77_linear_601_922)"/>
<circle cx="75.5964" cy="31.661" r="28.7499" transform="rotate(19.4105 75.5964 31.661)" fill="url(#paint78_linear_601_922)"/>
<circle cx="76.323" cy="30.157" r="28.7499" transform="rotate(19.4105 76.323 30.157)" fill="url(#paint79_linear_601_922)"/>
<circle cx="77.0241" cy="28.6403" r="28.7499" transform="rotate(19.4105 77.0241 28.6403)" fill="url(#paint80_linear_601_922)"/>
<circle cx="77.7028" cy="27.1149" r="28.7499" transform="rotate(19.4105 77.7028 27.1149)" fill="url(#paint81_linear_601_922)"/>
<circle cx="78.3591" cy="25.5788" r="28.7499" transform="rotate(19.4105 78.3591 25.5788)" fill="url(#paint82_linear_601_922)"/>
<circle cx="78.9929" cy="24.0329" r="28.7499" transform="rotate(19.4105 78.9929 24.0329)" fill="url(#paint83_linear_601_922)"/>
<circle cx="79.6042" cy="22.4782" r="28.7499" transform="rotate(19.4105 79.6042 22.4782)" fill="url(#paint84_linear_601_922)"/>
<circle cx="80.195" cy="20.9167" r="28.7499" transform="rotate(19.4105 80.195 20.9167)" fill="url(#paint85_linear_601_922)"/>
<circle cx="80.7653" cy="19.3461" r="28.7499" transform="rotate(19.4105 80.7653 19.3461)" fill="url(#paint86_linear_601_922)"/>
<circle cx="81.3142" cy="17.7687" r="28.7499" transform="rotate(19.4105 81.3142 17.7687)" fill="url(#paint87_linear_601_922)"/>
<circle cx="81.8435" cy="16.1842" r="28.7499" transform="rotate(19.4105 81.8435 16.1842)" fill="url(#paint88_linear_601_922)"/>
<circle cx="82.3532" cy="14.5937" r="28.7499" transform="rotate(19.4105 82.3532 14.5937)" fill="url(#paint89_linear_601_922)"/>
<circle cx="82.8435" cy="12.9969" r="28.7499" transform="rotate(19.4105 82.8435 12.9969)" fill="url(#paint90_linear_601_922)"/>
<circle cx="83.3142" cy="11.3938" r="28.7499" transform="rotate(19.4105 83.3142 11.3938)" fill="url(#paint91_linear_601_922)"/>
<circle cx="83.7673" cy="9.78641" r="28.7499" transform="rotate(19.4105 83.7673 9.78641)" fill="url(#paint92_linear_601_922)"/>
<circle cx="84.2028" cy="8.17373" r="28.7499" transform="rotate(19.4105 84.2028 8.17373)" fill="url(#paint93_linear_601_922)"/>
<circle cx="84.6198" cy="6.55655" r="28.7499" transform="rotate(19.4105 84.6198 6.55655)" fill="url(#paint94_linear_601_922)"/>
<circle cx="85.0192" cy="4.93399" r="28.7499" transform="rotate(19.4105 85.0192 4.93399)" fill="url(#paint95_linear_601_922)"/>
<circle cx="85.4011" cy="3.30789" r="28.7499" transform="rotate(19.4105 85.4011 3.30789)" fill="url(#paint96_linear_601_922)"/>
<circle cx="85.7663" cy="1.67813" r="28.7499" transform="rotate(19.4105 85.7663 1.67813)" fill="url(#paint97_linear_601_922)"/>
<circle cx="86.115" cy="0.0448286" r="28.7499" transform="rotate(19.4105 86.115 0.0448286)" fill="url(#paint98_linear_601_922)"/>
<circle cx="86.448" cy="-1.59201" r="28.7499" transform="rotate(19.4105 86.448 -1.59201)" fill="url(#paint99_linear_601_922)"/>
<circle cx="86.7634" cy="-3.23264" r="28.7499" transform="rotate(19.4105 86.7634 -3.23264)" fill="url(#paint100_linear_601_922)"/>
<circle cx="87.0632" cy="-4.87595" r="28.7499" transform="rotate(19.4105 87.0632 -4.87595)" fill="url(#paint101_linear_601_922)"/>
<circle cx="87.3464" cy="-6.52194" r="28.7499" transform="rotate(19.4105 87.3464 -6.52194)" fill="url(#paint102_linear_601_922)"/>
<circle cx="87.615" cy="-8.17087" r="28.7499" transform="rotate(19.4105 87.615 -8.17087)" fill="url(#paint103_linear_601_922)"/>
<circle cx="87.8669" cy="-9.82138" r="28.7499" transform="rotate(19.4105 87.8669 -9.82138)" fill="url(#paint104_linear_601_922)"/>
<circle cx="88.1032" cy="-11.4756" r="28.7499" transform="rotate(19.4105 88.1032 -11.4756)" fill="url(#paint105_linear_601_922)"/>
<circle cx="88.3249" cy="-13.1316" r="28.7499" transform="rotate(19.4105 88.3249 -13.1316)" fill="url(#paint106_linear_601_922)"/>
<circle cx="88.53" cy="-14.7892" r="28.7499" transform="rotate(19.4105 88.53 -14.7892)" fill="url(#paint107_linear_601_922)"/>
<circle cx="88.7214" cy="-16.4486" r="28.7499" transform="rotate(19.4105 88.7214 -16.4486)" fill="url(#paint108_linear_601_922)"/>
<circle cx="88.8962" cy="-18.1095" r="28.7499" transform="rotate(19.4105 88.8962 -18.1095)" fill="url(#paint109_linear_601_922)"/>
<circle cx="89.0564" cy="-19.7719" r="28.7499" transform="rotate(19.4105 89.0564 -19.7719)" fill="url(#paint110_linear_601_922)"/>
<circle cx="89.2009" cy="-21.436" r="28.7499" transform="rotate(19.4105 89.2009 -21.436)" fill="url(#paint111_linear_601_922)"/>
<circle cx="89.3298" cy="-23.1015" r="28.7499" transform="rotate(19.4105 89.3298 -23.1015)" fill="url(#paint112_linear_601_922)"/>
<circle cx="89.4441" cy="-24.7672" r="28.7499" transform="rotate(19.4105 89.4441 -24.7672)" fill="url(#paint113_linear_601_922)"/>
<circle cx="89.5417" cy="-26.4352" r="28.7499" transform="rotate(19.4105 89.5417 -26.4352)" fill="url(#paint114_linear_601_922)"/>
<circle cx="89.6237" cy="-28.1031" r="28.7499" transform="rotate(19.4105 89.6237 -28.1031)" fill="url(#paint115_linear_601_922)"/>
<circle cx="89.6892" cy="-29.7728" r="28.7499" transform="rotate(19.4105 89.6892 -29.7728)" fill="url(#paint116_linear_601_922)"/>
<circle cx="89.739" cy="-31.4414" r="28.7499" transform="rotate(19.4105 89.739 -31.4414)" fill="url(#paint117_linear_601_922)"/>
<circle cx="89.7712" cy="-33.1154" r="28.7499" transform="rotate(19.4105 89.7712 -33.1154)" fill="url(#paint118_linear_601_922)"/>
<circle cx="89.7868" cy="-34.7887" r="28.7499" transform="rotate(19.4105 89.7868 -34.7887)" fill="url(#paint119_linear_601_922)"/>
<defs>
<linearGradient id="paint0_linear_601_922" x1="89.7829" y1="-63.5465" x2="89.7829" y2="-6.04673" gradientUnits="userSpaceOnUse">
<stop stop-color="#5214FF"/>
<stop offset="1" stop-color="#FF0000"/>
</linearGradient>
<linearGradient id="paint1_linear_601_922" x1="89.0085" y1="-65.0225" x2="89.0085" y2="-7.52281" gradientUnits="userSpaceOnUse">
<stop stop-color="#5214FF"/>
<stop offset="1" stop-color="#FF0000"/>
</linearGradient>
<linearGradient id="paint2_linear_601_922" x1="-35.5677" y1="22.5833" x2="-35.5677" y2="80.083" gradientUnits="userSpaceOnUse">
<stop stop-color="#5214FF"/>
<stop offset="1" stop-color="#FF0000"/>
</linearGradient>
<linearGradient id="paint3_linear_601_922" x1="-34.1184" y1="23.4146" x2="-34.1184" y2="80.9143" gradientUnits="userSpaceOnUse">
<stop stop-color="#5214FF"/>
<stop offset="1" stop-color="#FF0000"/>
</linearGradient>
<linearGradient id="paint4_linear_601_922" x1="-32.6614" y1="24.2297" x2="-32.6614" y2="81.7294" gradientUnits="userSpaceOnUse">
<stop stop-color="#5214FF"/>
<stop offset="1" stop-color="#FF0000"/>
</linearGradient>
<linearGradient id="paint5_linear_601_922" x1="-31.1956" y1="25.0298" x2="-31.1956" y2="82.5296" gradientUnits="userSpaceOnUse">
<stop stop-color="#5214FF"/>
<stop offset="1" stop-color="#FF0000"/>
</linearGradient>
<linearGradient id="paint6_linear_601_922" x1="-29.721" y1="25.8155" x2="-29.721" y2="83.3152" gradientUnits="userSpaceOnUse">
<stop stop-color="#5214FF"/>
<stop offset="1" stop-color="#FF0000"/>
</linearGradient>
<linearGradient id="paint7_linear_601_922" x1="-28.2395" y1="26.586" x2="-28.2395" y2="84.0857" gradientUnits="userSpaceOnUse">
<stop stop-color="#5214FF"/>
<stop offset="1" stop-color="#FF0000"/>
</linearGradient>
<linearGradient id="paint8_linear_601_922" x1="-26.7503" y1="27.3436" x2="-26.7503" y2="84.8433" gradientUnits="userSpaceOnUse">
<stop stop-color="#5214FF"/>
<stop offset="1" stop-color="#FF0000"/>
</linearGradient>
<linearGradient id="paint9_linear_601_922" x1="-25.2542" y1="28.0865" x2="-25.2542" y2="85.5862" gradientUnits="userSpaceOnUse">
<stop stop-color="#5214FF"/>
<stop offset="1" stop-color="#FF0000"/>
</linearGradient>
<linearGradient id="paint10_linear_601_922" x1="-23.7454" y1="28.8189" x2="-23.7454" y2="86.3186" gradientUnits="userSpaceOnUse">
<stop stop-color="#5214FF"/>
<stop offset="1" stop-color="#FF0000"/>
</linearGradient>
<linearGradient id="paint11_linear_601_922" x1="-20.721" y1="30.2354" x2="-20.721" y2="87.7351" gradientUnits="userSpaceOnUse">
<stop stop-color="#5214FF"/>
<stop offset="1" stop-color="#FF0000"/>
</linearGradient>
<linearGradient id="paint12_linear_601_922" x1="-19.1975" y1="30.9209" x2="-19.1975" y2="88.4207" gradientUnits="userSpaceOnUse">
<stop stop-color="#5214FF"/>
<stop offset="1" stop-color="#FF0000"/>
</linearGradient>
<linearGradient id="paint13_linear_601_922" x1="-17.6673" y1="31.5888" x2="-17.6673" y2="89.0885" gradientUnits="userSpaceOnUse">
<stop stop-color="#5214FF"/>
<stop offset="1" stop-color="#FF0000"/>
</linearGradient>
<linearGradient id="paint14_linear_601_922" x1="-16.1292" y1="32.2406" x2="-16.1292" y2="89.7404" gradientUnits="userSpaceOnUse">
<stop stop-color="#5214FF"/>
<stop offset="1" stop-color="#FF0000"/>
</linearGradient>
<linearGradient id="paint15_linear_601_922" x1="-14.5833" y1="32.8742" x2="-14.5833" y2="90.3739" gradientUnits="userSpaceOnUse">
<stop stop-color="#5214FF"/>
<stop offset="1" stop-color="#FF0000"/>
</linearGradient>
<linearGradient id="paint16_linear_601_922" x1="-11.471" y1="34.0859" x2="-11.471" y2="91.5856" gradientUnits="userSpaceOnUse">
<stop stop-color="#5214FF"/>
<stop offset="1" stop-color="#FF0000"/>
</linearGradient>
<linearGradient id="paint17_linear_601_922" x1="-9.90262" y1="34.6631" x2="-9.90262" y2="92.1629" gradientUnits="userSpaceOnUse">
<stop stop-color="#5214FF"/>
<stop offset="1" stop-color="#FF0000"/>
</linearGradient>
<linearGradient id="paint18_linear_601_922" x1="-8.32841" y1="35.2192" x2="-8.32841" y2="92.7189" gradientUnits="userSpaceOnUse">
<stop stop-color="#5214FF"/>
<stop offset="1" stop-color="#FF0000"/>
</linearGradient>
<linearGradient id="paint19_linear_601_922" x1="-6.74637" y1="35.7527" x2="-6.74637" y2="93.2525" gradientUnits="userSpaceOnUse">
<stop stop-color="#5214FF"/>
<stop offset="1" stop-color="#FF0000"/>
</linearGradient>
<linearGradient id="paint20_linear_601_922" x1="-5.15653" y1="36.2653" x2="-5.15653" y2="93.765" gradientUnits="userSpaceOnUse">
<stop stop-color="#5214FF"/>
<stop offset="1" stop-color="#FF0000"/>
</linearGradient>
<linearGradient id="paint21_linear_601_922" x1="-3.55985" y1="36.7548" x2="-3.55985" y2="94.2545" gradientUnits="userSpaceOnUse">
<stop stop-color="#5214FF"/>
<stop offset="1" stop-color="#FF0000"/>
</linearGradient>
<linearGradient id="paint22_linear_601_922" x1="-1.95536" y1="37.2206" x2="-1.95536" y2="94.7204" gradientUnits="userSpaceOnUse">
<stop stop-color="#5214FF"/>
<stop offset="1" stop-color="#FF0000"/>
</linearGradient>
<linearGradient id="paint23_linear_601_922" x1="-0.345007" y1="37.6601" x2="-0.345007" y2="95.1598" gradientUnits="userSpaceOnUse">
<stop stop-color="#5214FF"/>
<stop offset="1" stop-color="#FF0000"/>
</linearGradient>
<linearGradient id="paint24_linear_601_922" x1="1.27316" y1="38.0754" x2="1.27316" y2="95.5751" gradientUnits="userSpaceOnUse">
<stop stop-color="#5214FF"/>
<stop offset="1" stop-color="#FF0000"/>
</linearGradient>
<linearGradient id="paint25_linear_601_922" x1="2.89816" y1="38.4624" x2="2.89816" y2="95.9622" gradientUnits="userSpaceOnUse">
<stop stop-color="#5214FF"/>
<stop offset="1" stop-color="#FF0000"/>
</linearGradient>
<linearGradient id="paint26_linear_601_922" x1="4.52902" y1="38.8219" x2="4.52902" y2="96.3217" gradientUnits="userSpaceOnUse">
<stop stop-color="#5214FF"/>
<stop offset="1" stop-color="#FF0000"/>
</linearGradient>
<linearGradient id="paint27_linear_601_922" x1="6.16671" y1="39.1515" x2="6.16671" y2="96.6513" gradientUnits="userSpaceOnUse">
<stop stop-color="#5214FF"/>
<stop offset="1" stop-color="#FF0000"/>
</linearGradient>
<linearGradient id="paint28_linear_601_922" x1="7.80929" y1="39.4512" x2="7.80929" y2="96.9509" gradientUnits="userSpaceOnUse">
<stop stop-color="#5214FF"/>
<stop offset="1" stop-color="#FF0000"/>
</linearGradient>
<linearGradient id="paint29_linear_601_922" x1="9.4587" y1="39.7196" x2="9.4587" y2="97.2194" gradientUnits="userSpaceOnUse">
<stop stop-color="#5214FF"/>
<stop offset="1" stop-color="#FF0000"/>
</linearGradient>
<linearGradient id="paint30_linear_601_922" x1="11.111" y1="39.9545" x2="11.111" y2="97.4542" gradientUnits="userSpaceOnUse">
<stop stop-color="#5214FF"/>
<stop offset="1" stop-color="#FF0000"/>
</linearGradient>
<linearGradient id="paint31_linear_601_922" x1="12.7692" y1="40.1557" x2="12.7692" y2="97.6554" gradientUnits="userSpaceOnUse">
<stop stop-color="#5214FF"/>
<stop offset="1" stop-color="#FF0000"/>
</linearGradient>
<linearGradient id="paint32_linear_601_922" x1="14.4314" y1="40.3211" x2="14.4314" y2="97.8208" gradientUnits="userSpaceOnUse">
<stop stop-color="#5214FF"/>
<stop offset="1" stop-color="#FF0000"/>
</linearGradient>
<linearGradient id="paint33_linear_601_922" x1="16.0964" y1="40.4505" x2="16.0964" y2="97.9502" gradientUnits="userSpaceOnUse">
<stop stop-color="#5214FF"/>
<stop offset="1" stop-color="#FF0000"/>
</linearGradient>
<linearGradient id="paint34_linear_601_922" x1="17.7644" y1="40.5418" x2="17.7644" y2="98.0415" gradientUnits="userSpaceOnUse">
<stop stop-color="#5214FF"/>
<stop offset="1" stop-color="#FF0000"/>
</linearGradient>
<linearGradient id="paint35_linear_601_922" x1="19.4333" y1="40.5931" x2="19.4333" y2="98.0928" gradientUnits="userSpaceOnUse">
<stop stop-color="#5214FF"/>
<stop offset="1" stop-color="#FF0000"/>
</linearGradient>
<linearGradient id="paint36_linear_601_922" x1="21.1042" y1="40.6051" x2="21.1042" y2="98.1049" gradientUnits="userSpaceOnUse">
<stop stop-color="#5214FF"/>
<stop offset="1" stop-color="#FF0000"/>
</linearGradient>
<linearGradient id="paint37_linear_601_922" x1="22.7741" y1="40.5752" x2="22.7741" y2="98.075" gradientUnits="userSpaceOnUse">
<stop stop-color="#5214FF"/>
<stop offset="1" stop-color="#FF0000"/>
</linearGradient>
<linearGradient id="paint38_linear_601_922" x1="24.4431" y1="40.5015" x2="24.4431" y2="98.0012" gradientUnits="userSpaceOnUse">
<stop stop-color="#5214FF"/>
<stop offset="1" stop-color="#FF0000"/>
</linearGradient>
<linearGradient id="paint39_linear_601_922" x1="26.1091" y1="40.3841" x2="26.1091" y2="97.8838" gradientUnits="userSpaceOnUse">
<stop stop-color="#5214FF"/>
<stop offset="1" stop-color="#FF0000"/>
</linearGradient>
<linearGradient id="paint40_linear_601_922" x1="27.7702" y1="40.2203" x2="27.7702" y2="97.72" gradientUnits="userSpaceOnUse">
<stop stop-color="#5214FF"/>
<stop offset="1" stop-color="#FF0000"/>
</linearGradient>
<linearGradient id="paint41_linear_601_922" x1="29.4275" y1="40.0114" x2="29.4275" y2="97.5111" gradientUnits="userSpaceOnUse">
<stop stop-color="#5214FF"/>
<stop offset="1" stop-color="#FF0000"/>
</linearGradient>
<linearGradient id="paint42_linear_601_922" x1="31.0778" y1="39.7547" x2="31.0778" y2="97.2544" gradientUnits="userSpaceOnUse">
<stop stop-color="#5214FF"/>
<stop offset="1" stop-color="#FF0000"/>
</linearGradient>
<linearGradient id="paint43_linear_601_922" x1="32.7214" y1="39.4509" x2="32.7214" y2="96.9506" gradientUnits="userSpaceOnUse">
<stop stop-color="#5214FF"/>
<stop offset="1" stop-color="#FF0000"/>
</linearGradient>
<linearGradient id="paint44_linear_601_922" x1="34.3532" y1="39.0976" x2="34.3532" y2="96.5973" gradientUnits="userSpaceOnUse">
<stop stop-color="#5214FF"/>
<stop offset="1" stop-color="#FF0000"/>
</linearGradient>
<linearGradient id="paint45_linear_601_922" x1="35.9743" y1="38.6954" x2="35.9743" y2="96.1951" gradientUnits="userSpaceOnUse">
<stop stop-color="#5214FF"/>
<stop offset="1" stop-color="#FF0000"/>
</linearGradient>
<linearGradient id="paint46_linear_601_922" x1="37.5817" y1="38.2421" x2="37.5817" y2="95.7418" gradientUnits="userSpaceOnUse">
<stop stop-color="#5214FF"/>
<stop offset="1" stop-color="#FF0000"/>
</linearGradient>
<linearGradient id="paint47_linear_601_922" x1="39.1755" y1="37.7404" x2="39.1755" y2="95.2401" gradientUnits="userSpaceOnUse">
<stop stop-color="#5214FF"/>
<stop offset="1" stop-color="#FF0000"/>
</linearGradient>
<linearGradient id="paint48_linear_601_922" x1="40.7517" y1="37.1884" x2="40.7517" y2="94.6881" gradientUnits="userSpaceOnUse">
<stop stop-color="#5214FF"/>
<stop offset="1" stop-color="#FF0000"/>
</linearGradient>
<linearGradient id="paint49_linear_601_922" x1="42.3103" y1="36.5878" x2="42.3103" y2="94.0875" gradientUnits="userSpaceOnUse">
<stop stop-color="#5214FF"/>
<stop offset="1" stop-color="#FF0000"/>
</linearGradient>
<linearGradient id="paint50_linear_601_922" x1="43.8484" y1="35.9369" x2="43.8484" y2="93.4367" gradientUnits="userSpaceOnUse">
<stop stop-color="#5214FF"/>
<stop offset="1" stop-color="#FF0000"/>
</linearGradient>
<linearGradient id="paint51_linear_601_922" x1="45.3659" y1="35.2384" x2="45.3659" y2="92.7382" gradientUnits="userSpaceOnUse">
<stop stop-color="#5214FF"/>
<stop offset="1" stop-color="#FF0000"/>
</linearGradient>
<linearGradient id="paint52_linear_601_922" x1="46.8601" y1="34.4917" x2="46.8601" y2="91.9915" gradientUnits="userSpaceOnUse">
<stop stop-color="#5214FF"/>
<stop offset="1" stop-color="#FF0000"/>
</linearGradient>
<linearGradient id="paint53_linear_601_922" x1="48.3298" y1="33.6987" x2="48.3298" y2="91.1984" gradientUnits="userSpaceOnUse">
<stop stop-color="#5214FF"/>
<stop offset="1" stop-color="#FF0000"/>
</linearGradient>
<linearGradient id="paint54_linear_601_922" x1="49.7741" y1="32.8594" x2="49.7741" y2="90.3591" gradientUnits="userSpaceOnUse">
<stop stop-color="#5214FF"/>
<stop offset="1" stop-color="#FF0000"/>
</linearGradient>
<linearGradient id="paint55_linear_601_922" x1="51.1921" y1="31.976" x2="51.1921" y2="89.4757" gradientUnits="userSpaceOnUse">
<stop stop-color="#5214FF"/>
<stop offset="1" stop-color="#FF0000"/>
</linearGradient>
<linearGradient id="paint56_linear_601_922" x1="52.5817" y1="31.0494" x2="52.5817" y2="88.5491" gradientUnits="userSpaceOnUse">
<stop stop-color="#5214FF"/>
<stop offset="1" stop-color="#FF0000"/>
</linearGradient>
<linearGradient id="paint57_linear_601_922" x1="53.9431" y1="30.0806" x2="53.9431" y2="87.5803" gradientUnits="userSpaceOnUse">
<stop stop-color="#5214FF"/>
<stop offset="1" stop-color="#FF0000"/>
</linearGradient>
<linearGradient id="paint58_linear_601_922" x1="55.2741" y1="29.0717" x2="55.2741" y2="86.5714" gradientUnits="userSpaceOnUse">
<stop stop-color="#5214FF"/>
<stop offset="1" stop-color="#FF0000"/>
</linearGradient>
<linearGradient id="paint59_linear_601_922" x1="56.5749" y1="28.0246" x2="56.5749" y2="85.5243" gradientUnits="userSpaceOnUse">
<stop stop-color="#5214FF"/>
<stop offset="1" stop-color="#FF0000"/>
</linearGradient>
<linearGradient id="paint60_linear_601_922" x1="57.8464" y1="26.941" x2="57.8464" y2="84.4407" gradientUnits="userSpaceOnUse">
<stop stop-color="#5214FF"/>
<stop offset="1" stop-color="#FF0000"/>
</linearGradient>
<linearGradient id="paint61_linear_601_922" x1="59.0876" y1="25.8226" x2="59.0876" y2="83.3223" gradientUnits="userSpaceOnUse">
<stop stop-color="#5214FF"/>
<stop offset="1" stop-color="#FF0000"/>
</linearGradient>
<linearGradient id="paint62_linear_601_922" x1="60.2956" y1="24.6694" x2="60.2956" y2="82.1691" gradientUnits="userSpaceOnUse">
<stop stop-color="#5214FF"/>
<stop offset="1" stop-color="#FF0000"/>
</linearGradient>
<linearGradient id="paint63_linear_601_922" x1="61.4734" y1="23.4848" x2="61.4734" y2="80.9845" gradientUnits="userSpaceOnUse">
<stop stop-color="#5214FF"/>
<stop offset="1" stop-color="#FF0000"/>
</linearGradient>
<linearGradient id="paint64_linear_601_922" x1="62.6208" y1="22.2714" x2="62.6208" y2="79.7711" gradientUnits="userSpaceOnUse">
<stop stop-color="#5214FF"/>
<stop offset="1" stop-color="#FF0000"/>
</linearGradient>
<linearGradient id="paint65_linear_601_922" x1="63.737" y1="21.0279" x2="63.737" y2="78.5276" gradientUnits="userSpaceOnUse">
<stop stop-color="#5214FF"/>
<stop offset="1" stop-color="#FF0000"/>
</linearGradient>
<linearGradient id="paint66_linear_601_922" x1="64.822" y1="19.7587" x2="64.822" y2="77.2584" gradientUnits="userSpaceOnUse">
<stop stop-color="#5214FF"/>
<stop offset="1" stop-color="#FF0000"/>
</linearGradient>
<linearGradient id="paint67_linear_601_922" x1="65.8767" y1="18.4631" x2="65.8767" y2="75.9628" gradientUnits="userSpaceOnUse">
<stop stop-color="#5214FF"/>
<stop offset="1" stop-color="#FF0000"/>
</linearGradient>
<linearGradient id="paint68_linear_601_922" x1="66.9021" y1="17.1445" x2="66.9021" y2="74.6442" gradientUnits="userSpaceOnUse">
<stop stop-color="#5214FF"/>
<stop offset="1" stop-color="#FF0000"/>
</linearGradient>
<linearGradient id="paint69_linear_601_922" x1="67.8962" y1="15.8023" x2="67.8962" y2="73.302" gradientUnits="userSpaceOnUse">
<stop stop-color="#5214FF"/>
<stop offset="1" stop-color="#FF0000"/>
</linearGradient>
<linearGradient id="paint70_linear_601_922" x1="68.863" y1="14.4395" x2="68.863" y2="71.9392" gradientUnits="userSpaceOnUse">
<stop stop-color="#5214FF"/>
<stop offset="1" stop-color="#FF0000"/>
</linearGradient>
<linearGradient id="paint71_linear_601_922" x1="69.8005" y1="13.0575" x2="69.8005" y2="70.5573" gradientUnits="userSpaceOnUse">
<stop stop-color="#5214FF"/>
<stop offset="1" stop-color="#FF0000"/>
</linearGradient>
<linearGradient id="paint72_linear_601_922" x1="70.7087" y1="11.6557" x2="70.7087" y2="69.1554" gradientUnits="userSpaceOnUse">
<stop stop-color="#5214FF"/>
<stop offset="1" stop-color="#FF0000"/>
</linearGradient>
<linearGradient id="paint73_linear_601_922" x1="71.5886" y1="10.2358" x2="71.5886" y2="67.7355" gradientUnits="userSpaceOnUse">
<stop stop-color="#5214FF"/>
<stop offset="1" stop-color="#FF0000"/>
</linearGradient>
<linearGradient id="paint74_linear_601_922" x1="72.4431" y1="8.79997" x2="72.4431" y2="66.2997" gradientUnits="userSpaceOnUse">
<stop stop-color="#5214FF"/>
<stop offset="1" stop-color="#FF0000"/>
</linearGradient>
<linearGradient id="paint75_linear_601_922" x1="73.2702" y1="7.34953" x2="73.2702" y2="64.8493" gradientUnits="userSpaceOnUse">
<stop stop-color="#5214FF"/>
<stop offset="1" stop-color="#FF0000"/>
</linearGradient>
<linearGradient id="paint76_linear_601_922" x1="74.071" y1="5.88335" x2="74.071" y2="63.3831" gradientUnits="userSpaceOnUse">
<stop stop-color="#5214FF"/>
<stop offset="1" stop-color="#FF0000"/>
</linearGradient>
<linearGradient id="paint77_linear_601_922" x1="74.8464" y1="4.40361" x2="74.8464" y2="61.9033" gradientUnits="userSpaceOnUse">
<stop stop-color="#5214FF"/>
<stop offset="1" stop-color="#FF0000"/>
</linearGradient>
<linearGradient id="paint78_linear_601_922" x1="75.5964" y1="2.91118" x2="75.5964" y2="60.4109" gradientUnits="userSpaceOnUse">
<stop stop-color="#5214FF"/>
<stop offset="1" stop-color="#FF0000"/>
</linearGradient>
<linearGradient id="paint79_linear_601_922" x1="76.323" y1="1.40715" x2="76.323" y2="58.9069" gradientUnits="userSpaceOnUse">
<stop stop-color="#5214FF"/>
<stop offset="1" stop-color="#FF0000"/>
</linearGradient>
<linearGradient id="paint80_linear_601_922" x1="77.0241" y1="-0.109575" x2="77.0241" y2="57.3902" gradientUnits="userSpaceOnUse">
<stop stop-color="#5214FF"/>
<stop offset="1" stop-color="#FF0000"/>
</linearGradient>
<linearGradient id="paint81_linear_601_922" x1="77.7028" y1="-1.63497" x2="77.7028" y2="55.8648" gradientUnits="userSpaceOnUse">
<stop stop-color="#5214FF"/>
<stop offset="1" stop-color="#FF0000"/>
</linearGradient>
<linearGradient id="paint82_linear_601_922" x1="78.3591" y1="-3.1711" x2="78.3591" y2="54.3286" gradientUnits="userSpaceOnUse">
<stop stop-color="#5214FF"/>
<stop offset="1" stop-color="#FF0000"/>
</linearGradient>
<linearGradient id="paint83_linear_601_922" x1="78.9929" y1="-4.717" x2="78.9929" y2="52.7827" gradientUnits="userSpaceOnUse">
<stop stop-color="#5214FF"/>
<stop offset="1" stop-color="#FF0000"/>
</linearGradient>
<linearGradient id="paint84_linear_601_922" x1="79.6042" y1="-6.27168" x2="79.6042" y2="51.228" gradientUnits="userSpaceOnUse">
<stop stop-color="#5214FF"/>
<stop offset="1" stop-color="#FF0000"/>
</linearGradient>
<linearGradient id="paint85_linear_601_922" x1="80.195" y1="-7.83321" x2="80.195" y2="49.6665" gradientUnits="userSpaceOnUse">
<stop stop-color="#5214FF"/>
<stop offset="1" stop-color="#FF0000"/>
</linearGradient>
<linearGradient id="paint86_linear_601_922" x1="80.7653" y1="-9.40376" x2="80.7653" y2="48.096" gradientUnits="userSpaceOnUse">
<stop stop-color="#5214FF"/>
<stop offset="1" stop-color="#FF0000"/>
</linearGradient>
<linearGradient id="paint87_linear_601_922" x1="81.3142" y1="-10.9812" x2="81.3142" y2="46.5186" gradientUnits="userSpaceOnUse">
<stop stop-color="#5214FF"/>
<stop offset="1" stop-color="#FF0000"/>
</linearGradient>
<linearGradient id="paint88_linear_601_922" x1="81.8435" y1="-12.5656" x2="81.8435" y2="44.9341" gradientUnits="userSpaceOnUse">
<stop stop-color="#5214FF"/>
<stop offset="1" stop-color="#FF0000"/>
</linearGradient>
<linearGradient id="paint89_linear_601_922" x1="82.3532" y1="-14.1562" x2="82.3532" y2="43.3435" gradientUnits="userSpaceOnUse">
<stop stop-color="#5214FF"/>
<stop offset="1" stop-color="#FF0000"/>
</linearGradient>
<linearGradient id="paint90_linear_601_922" x1="82.8435" y1="-15.753" x2="82.8435" y2="41.7467" gradientUnits="userSpaceOnUse">
<stop stop-color="#5214FF"/>
<stop offset="1" stop-color="#FF0000"/>
</linearGradient>
<linearGradient id="paint91_linear_601_922" x1="83.3142" y1="-17.356" x2="83.3142" y2="40.1437" gradientUnits="userSpaceOnUse">
<stop stop-color="#5214FF"/>
<stop offset="1" stop-color="#FF0000"/>
</linearGradient>
<linearGradient id="paint92_linear_601_922" x1="83.7673" y1="-18.9635" x2="83.7673" y2="38.5363" gradientUnits="userSpaceOnUse">
<stop stop-color="#5214FF"/>
<stop offset="1" stop-color="#FF0000"/>
</linearGradient>
<linearGradient id="paint93_linear_601_922" x1="84.2028" y1="-20.5761" x2="84.2028" y2="36.9236" gradientUnits="userSpaceOnUse">
<stop stop-color="#5214FF"/>
<stop offset="1" stop-color="#FF0000"/>
</linearGradient>
<linearGradient id="paint94_linear_601_922" x1="84.6198" y1="-22.1933" x2="84.6198" y2="35.3064" gradientUnits="userSpaceOnUse">
<stop stop-color="#5214FF"/>
<stop offset="1" stop-color="#FF0000"/>
</linearGradient>
<linearGradient id="paint95_linear_601_922" x1="85.0192" y1="-23.8159" x2="85.0192" y2="33.6839" gradientUnits="userSpaceOnUse">
<stop stop-color="#5214FF"/>
<stop offset="1" stop-color="#FF0000"/>
</linearGradient>
<linearGradient id="paint96_linear_601_922" x1="85.4011" y1="-25.442" x2="85.4011" y2="32.0578" gradientUnits="userSpaceOnUse">
<stop stop-color="#5214FF"/>
<stop offset="1" stop-color="#FF0000"/>
</linearGradient>
<linearGradient id="paint97_linear_601_922" x1="85.7663" y1="-27.0717" x2="85.7663" y2="30.428" gradientUnits="userSpaceOnUse">
<stop stop-color="#5214FF"/>
<stop offset="1" stop-color="#FF0000"/>
</linearGradient>
<linearGradient id="paint98_linear_601_922" x1="86.115" y1="-28.705" x2="86.115" y2="28.7947" gradientUnits="userSpaceOnUse">
<stop stop-color="#5214FF"/>
<stop offset="1" stop-color="#FF0000"/>
</linearGradient>
<linearGradient id="paint99_linear_601_922" x1="86.448" y1="-30.3419" x2="86.448" y2="27.1579" gradientUnits="userSpaceOnUse">
<stop stop-color="#5214FF"/>
<stop offset="1" stop-color="#FF0000"/>
</linearGradient>
<linearGradient id="paint100_linear_601_922" x1="86.7634" y1="-31.9825" x2="86.7634" y2="25.5172" gradientUnits="userSpaceOnUse">
<stop stop-color="#5214FF"/>
<stop offset="1" stop-color="#FF0000"/>
</linearGradient>
<linearGradient id="paint101_linear_601_922" x1="87.0632" y1="-33.6258" x2="87.0632" y2="23.8739" gradientUnits="userSpaceOnUse">
<stop stop-color="#5214FF"/>
<stop offset="1" stop-color="#FF0000"/>
</linearGradient>
<linearGradient id="paint102_linear_601_922" x1="87.3464" y1="-35.2718" x2="87.3464" y2="22.2279" gradientUnits="userSpaceOnUse">
<stop stop-color="#5214FF"/>
<stop offset="1" stop-color="#FF0000"/>
</linearGradient>
<linearGradient id="paint103_linear_601_922" x1="87.615" y1="-36.9207" x2="87.615" y2="20.579" gradientUnits="userSpaceOnUse">
<stop stop-color="#5214FF"/>
<stop offset="1" stop-color="#FF0000"/>
</linearGradient>
<linearGradient id="paint104_linear_601_922" x1="87.8669" y1="-38.5712" x2="87.8669" y2="18.9285" gradientUnits="userSpaceOnUse">
<stop stop-color="#5214FF"/>
<stop offset="1" stop-color="#FF0000"/>
</linearGradient>
<linearGradient id="paint105_linear_601_922" x1="88.1032" y1="-40.2254" x2="88.1032" y2="17.2743" gradientUnits="userSpaceOnUse">
<stop stop-color="#5214FF"/>
<stop offset="1" stop-color="#FF0000"/>
</linearGradient>
<linearGradient id="paint106_linear_601_922" x1="88.3249" y1="-41.8814" x2="88.3249" y2="15.6183" gradientUnits="userSpaceOnUse">
<stop stop-color="#5214FF"/>
<stop offset="1" stop-color="#FF0000"/>
</linearGradient>
<linearGradient id="paint107_linear_601_922" x1="88.53" y1="-43.539" x2="88.53" y2="13.9607" gradientUnits="userSpaceOnUse">
<stop stop-color="#5214FF"/>
<stop offset="1" stop-color="#FF0000"/>
</linearGradient>
<linearGradient id="paint108_linear_601_922" x1="88.7214" y1="-45.1984" x2="88.7214" y2="12.3013" gradientUnits="userSpaceOnUse">
<stop stop-color="#5214FF"/>
<stop offset="1" stop-color="#FF0000"/>
</linearGradient>
<linearGradient id="paint109_linear_601_922" x1="88.8962" y1="-46.8593" x2="88.8962" y2="10.6404" gradientUnits="userSpaceOnUse">
<stop stop-color="#5214FF"/>
<stop offset="1" stop-color="#FF0000"/>
</linearGradient>
<linearGradient id="paint110_linear_601_922" x1="89.0564" y1="-48.5218" x2="89.0564" y2="8.97792" gradientUnits="userSpaceOnUse">
<stop stop-color="#5214FF"/>
<stop offset="1" stop-color="#FF0000"/>
</linearGradient>
<linearGradient id="paint111_linear_601_922" x1="89.2009" y1="-50.1859" x2="89.2009" y2="7.31386" gradientUnits="userSpaceOnUse">
<stop stop-color="#5214FF"/>
<stop offset="1" stop-color="#FF0000"/>
</linearGradient>
<linearGradient id="paint112_linear_601_922" x1="89.3298" y1="-51.8514" x2="89.3298" y2="5.64833" gradientUnits="userSpaceOnUse">
<stop stop-color="#5214FF"/>
<stop offset="1" stop-color="#FF0000"/>
</linearGradient>
<linearGradient id="paint113_linear_601_922" x1="89.4441" y1="-53.517" x2="89.4441" y2="3.98268" gradientUnits="userSpaceOnUse">
<stop stop-color="#5214FF"/>
<stop offset="1" stop-color="#FF0000"/>
</linearGradient>
<linearGradient id="paint114_linear_601_922" x1="89.5417" y1="-55.185" x2="89.5417" y2="2.31472" gradientUnits="userSpaceOnUse">
<stop stop-color="#5214FF"/>
<stop offset="1" stop-color="#FF0000"/>
</linearGradient>
<linearGradient id="paint115_linear_601_922" x1="89.6237" y1="-56.853" x2="89.6237" y2="0.646748" gradientUnits="userSpaceOnUse">
<stop stop-color="#5214FF"/>
<stop offset="1" stop-color="#FF0000"/>
</linearGradient>
<linearGradient id="paint116_linear_601_922" x1="89.6892" y1="-58.5227" x2="89.6892" y2="-1.02293" gradientUnits="userSpaceOnUse">
<stop stop-color="#5214FF"/>
<stop offset="1" stop-color="#FF0000"/>
</linearGradient>
<linearGradient id="paint117_linear_601_922" x1="89.739" y1="-60.1912" x2="89.739" y2="-2.69151" gradientUnits="userSpaceOnUse">
<stop stop-color="#5214FF"/>
<stop offset="1" stop-color="#FF0000"/>
</linearGradient>
<linearGradient id="paint118_linear_601_922" x1="89.7712" y1="-61.8653" x2="89.7712" y2="-4.36558" gradientUnits="userSpaceOnUse">
<stop stop-color="#5214FF"/>
<stop offset="1" stop-color="#FF0000"/>
</linearGradient>
<linearGradient id="paint119_linear_601_922" x1="89.7868" y1="-63.5385" x2="89.7868" y2="-6.0388" gradientUnits="userSpaceOnUse">
<stop stop-color="#5214FF"/>
<stop offset="1" stop-color="#FF0000"/>
</linearGradient>
</defs>
</svg>
