<svg width="191" height="38" viewBox="0 0 191 38" fill="none" xmlns="http://www.w3.org/2000/svg">
<path d="M177 10.5C150.5 1 117.955 5.39564 113.5 5.39564C111.059 5.39564 108.857 5.8279 106.449 5.39564C100.356 4.30213 94.2465 4.60091 88.0616 4.60091C79.0908 4.60091 70.1201 4.60091 61.1493 4.60091C55.0264 4.60091 48.9034 4.60091 42.7804 4.60091C35.0604 4.60091 26.0832 3.3412 18.7761 6.37098C16.4455 7.33731 13.9638 7.50681 11.5875 8.24942C9.64109 8.85766 7.95624 10.1824 6.15084 11.0851C4.9836 11.6688 2.85703 13.1093 2.30365 14.3543C1.46528 16.2407 2.56078 19.2247 3.20675 21.0011C3.74814 22.4899 5.41013 24.5411 6.53014 25.6611C8.5172 27.6482 11.9081 28.7039 14.4593 29.7973C18.0406 31.3321 23.0098 31.5205 26.7956 32.2356C31.1326 33.0548 35.7387 33.6543 40.1072 34.1683C43.8546 34.6091 47.7171 33.9914 51.4682 34.5837C60.1259 35.9507 68.8967 35.4868 77.6579 35.4868C96.8596 35.4868 113.803 32.4885 133 32.4885C135.347 32.4885 144.153 32.2639 146.5 32.2356C150.555 32.1868 155.427 30 159.5 30C166.18 28.1445 178.293 28.839 184.223 25.0831C188.023 22.6763 190.032 17.8625 188.775 13.3068C186.248 4.14688 174.908 3.5687 167.064 2" stroke="#FF0000" stroke-width="3" stroke-linecap="round"/>
</svg>
